<svg width="109" height="35" viewBox="0 0 109 35" fill="none" xmlns="http://www.w3.org/2000/svg">
<g clip-path="url(#clip0_2023_1989)">
<path d="M11.9869 2.99023H16.5749L17.8955 4.6018L14.2808 8.12938L10.6663 4.6018L11.9869 2.99023Z" fill="#34B2E7"/>
<path d="M17.5879 7.0117L18.7356 5.8833L28.6905 12.5227V26.7249L27.0802 26.1652V13.3428L17.5879 7.0117Z" fill="#34B2E7"/>
<path d="M29.0002 27.973C29.0002 27.973 25.3186 34.5514 15.946 34.9981C15.946 34.9981 12.741 35.1064 10.0069 33.7375C7.27283 32.3686 2.05456 29.7706 0 28.9351C0 28.9351 0.617206 27.5761 2.9465 27.5737C2.9465 27.5737 4.23967 27.541 5.97098 28.5329C7.70228 29.5247 10.6541 30.2264 13.1216 30.2045C15.5892 30.1826 17.136 29.5587 18.0094 28.9926C18.0094 28.9926 12.3068 28.1434 13.0644 25.8335C13.0644 25.8335 13.1159 25.7833 13.2624 25.8214C13.4089 25.8596 14.2236 26.1349 15.7067 26.2232C17.1898 26.3115 18.0864 26.3678 19.3656 26.1972C20.6449 26.0266 22.9834 25.1869 27.3137 27.2526L29.0002 27.973Z" fill="#34B2E7"/>
<path d="M9.7094 5.82349L10.8651 6.95969L1.61022 12.9214V26.5318L0 27.3464V11.8135L9.7094 5.82349Z" fill="#34B2E7"/>
<path d="M23.6943 19.969C23.6745 19.4284 23.5972 18.8913 23.4636 18.3661C23.3939 18.097 23.3073 17.8323 23.2046 17.5734C22.9466 16.9229 22.5844 16.3163 22.1272 15.7923C22.126 15.7912 22.1249 15.79 22.1249 15.7889C21.5375 15.1185 20.7953 14.5856 19.9158 14.2741C19.3722 14.0818 18.804 13.9622 18.2271 13.9186C17.2088 13.8492 16.1736 14.0538 15.4293 14.7447C15.1088 15.0419 14.8679 15.4085 14.6975 15.8026C14.2997 16.7197 14.4928 17.5641 14.5838 18.5151C14.6508 19.2153 14.6316 19.9287 14.4736 20.6167C14.3508 21.1517 14.1451 21.7837 13.7485 22.1977C13.8031 22.1415 14.0214 22.1107 14.0975 22.081C14.3682 21.9717 14.6226 21.8281 14.8542 21.6538C15.4679 21.1891 15.6781 20.6175 15.8775 19.9177C16.0412 19.3409 16.4093 18.9415 17.0412 18.8741C17.5528 18.8201 18.1537 18.9918 18.4389 19.4332C18.6265 19.724 18.706 20.0696 18.7299 20.412C18.7435 20.0432 18.7674 22.1349 18.2559 23.4504C18.2196 23.545 17.89 24.5105 17.5333 25.454C18.5083 25.4441 19.5275 25.3417 20.8976 25.1171C21.2493 25.0611 21.6051 25.0336 21.9615 25.0347C22.1909 25.0347 22.4182 25.0458 22.641 25.0633C23.117 23.3675 23.734 20.9719 23.6943 19.969ZM17.3986 12.2804C16.4731 10.3759 14.2716 11.1118 13.7485 12.3829C13.1594 13.8184 14.1206 14.4986 14.777 14.8774C14.777 14.8774 15.8896 13.6532 17.4885 13.6807C17.4885 13.6801 17.6463 12.7913 17.3986 12.2804ZM11.8656 12.5678C11.4632 12.4852 11.0462 12.5733 10.6439 12.6558C10.6405 12.2848 10.5803 11.8297 10.2253 11.6945C10.0229 11.6175 9.79333 11.6813 9.59798 11.7738C9.14312 11.9925 8.78398 12.3615 8.58543 12.8142C8.53302 12.9353 8.49116 13.0675 8.51147 13.1984C8.5445 13.4186 8.74899 13.5849 8.96946 13.649C9.18992 13.7131 9.42511 13.6941 9.65364 13.6742C9.46777 13.9213 9.36605 14.2184 9.36263 14.5242V14.5275C9.98883 14.5562 10.6219 14.6915 11.1525 15.0152C11.6832 15.3388 12.0673 15.7021 12.1491 16.3043C12.4707 15.4743 12.7935 15.1027 12.9992 14.5198C13.2577 13.7831 12.7803 12.7572 11.8656 12.5678ZM11.0003 26.8594C9.12992 24.8667 8.19241 21.4419 10.3822 19.3216C10.3822 19.3216 10.9527 23.3025 14.3778 23.3587C14.3778 23.3587 12.38 22.031 12.2653 20.2618C12.1505 18.4927 12.5507 14.5662 9.12574 14.8967C4.41878 15.3535 2.96081 22.6391 5.1301 25.6805C7.73473 29.3332 13.3566 28.9159 13.6769 28.8895C13.4632 28.8885 13.0008 28.4954 12.8485 28.3964C12.1747 27.9559 11.5462 27.4418 11.0003 26.8594Z" fill="white"/>
<path d="M18.9154 4.38025C20.0663 4.38025 20.9993 3.47643 20.9993 2.36151C20.9993 1.24659 20.0663 0.342773 18.9154 0.342773C17.7645 0.342773 16.8315 1.24659 16.8315 2.36151C16.8315 3.47643 17.7645 4.38025 18.9154 4.38025Z" fill="#34B2E7"/>
<path d="M20.4728 5.14731C21.0766 5.14731 21.566 4.67318 21.566 4.08831C21.566 3.50343 21.0766 3.0293 20.4728 3.0293C19.8691 3.0293 19.3796 3.50343 19.3796 4.08831C19.3796 4.67318 19.8691 5.14731 20.4728 5.14731Z" fill="#34B2E7"/>
<path d="M16.9547 1.80772C17.47 1.80772 17.8878 1.40305 17.8878 0.90386C17.8878 0.404672 17.47 0 16.9547 0C16.4395 0 16.0217 0.404672 16.0217 0.90386C16.0217 1.40305 16.4395 1.80772 16.9547 1.80772Z" fill="#34B2E7"/>
</g>
<path d="M43.5406 15.5149C43.5422 15.9707 43.4317 16.4208 43.2174 16.831C42.9983 17.2504 42.6902 17.6246 42.3116 17.9315C41.9237 18.2495 41.4637 18.5035 40.9318 18.6933C40.3998 18.8831 39.8124 18.978 39.1696 18.978C38.6498 18.9816 38.1304 18.9509 37.6153 18.8859C37.1737 18.8285 36.7394 18.7305 36.3187 18.5934C35.9127 18.4594 35.5228 18.2866 35.1554 18.0778C34.7529 17.8472 34.367 17.5927 34 17.316L35.8285 15.6075C36.3605 16.0178 36.8813 16.3076 37.3911 16.477C37.9008 16.6464 38.4549 16.7308 39.0533 16.7302C39.287 16.7316 39.5193 16.6979 39.7413 16.6303C39.9445 16.5699 40.1355 16.4788 40.3066 16.3608C40.4622 16.253 40.5923 16.1169 40.6889 15.9608C40.7832 15.8058 40.8319 15.6307 40.8301 15.4528C40.8334 15.2725 40.7937 15.0938 40.7138 14.9294C40.6359 14.776 40.4974 14.6273 40.2984 14.4833C40.0994 14.3394 39.8225 14.1933 39.4679 14.0451C39.1129 13.8964 38.6585 13.7296 38.1047 13.5447C37.6247 13.3838 37.1556 13.1961 36.7 12.9829C36.2685 12.7838 35.8709 12.5272 35.52 12.2211C35.1809 11.9223 34.9047 11.5677 34.7057 11.1754C34.4999 10.7746 34.397 10.3023 34.397 9.75851C34.397 9.23512 34.5107 8.75277 34.738 8.31147C34.9589 7.87798 35.2761 7.49255 35.6689 7.18043C36.0618 6.86741 36.5217 6.62366 37.0485 6.4492C37.5753 6.27473 38.1433 6.1875 38.7523 6.1875C39.7716 6.1875 40.6305 6.31072 41.329 6.55715C42.02 6.79924 42.6527 7.1653 43.1906 7.63432L41.3964 9.31107C41.0746 9.02024 40.6968 8.78789 40.2825 8.6261C39.8723 8.46698 39.3904 8.38742 38.8365 8.38742C38.596 8.38536 38.3569 8.42188 38.1298 8.49537C37.928 8.56007 37.7397 8.65637 37.573 8.78008C37.4211 8.8952 37.2945 9.03633 37.2002 9.19576C37.1079 9.34862 37.0593 9.52078 37.059 9.69591C37.0562 9.88029 37.1019 10.0625 37.1922 10.2269C37.2805 10.3862 37.4301 10.5402 37.6409 10.6888C37.8517 10.8375 38.1315 10.9862 38.4803 11.1349C38.8293 11.284 39.2643 11.4457 39.7853 11.6199C40.45 11.8354 41.0208 12.0714 41.4975 12.3279C41.9743 12.5843 42.3621 12.8664 42.6609 13.1744C42.9558 13.4757 43.182 13.8291 43.3258 14.2134C43.469 14.5988 43.5406 15.0327 43.5406 15.5149Z" fill="white"/>
<path d="M52.8328 18.7481H50.439V18.271C50.0341 18.5311 49.5803 18.719 49.1009 18.825C48.624 18.928 48.1358 18.9795 47.646 18.9783C47.1804 18.9783 46.7592 18.9141 46.3825 18.7858C46.0183 18.6648 45.6846 18.4762 45.4019 18.2316C45.1257 17.992 44.9076 17.7009 44.762 17.3775C44.6129 17.0492 44.5383 16.685 44.5383 16.2846C44.5383 15.7823 44.6574 15.3436 44.8955 14.9686C45.1376 14.5907 45.4703 14.2694 45.868 14.0297C46.2779 13.7787 46.7573 13.5915 47.306 13.4681C47.8547 13.3447 48.4447 13.2834 49.0761 13.284H50.4549C50.4549 12.7604 50.2721 12.3447 49.9063 12.0369C49.5406 11.7291 49.0143 11.5752 48.3274 11.5752C47.9761 11.5783 47.6278 11.6356 47.2968 11.7446C46.9418 11.8579 46.5871 12.0631 46.2326 12.3603L44.8197 11.0366C45.3307 10.5844 45.932 10.2288 46.5901 9.98985C47.2483 9.74613 47.9508 9.62114 48.6597 9.62158C49.3247 9.62158 49.9168 9.71902 50.4358 9.91389C50.9548 10.1088 51.3739 10.3602 51.6931 10.6681C52.1115 11.0584 52.4059 11.4944 52.5763 11.9764C52.7466 12.4584 52.8319 13.074 52.832 13.8233L52.8328 18.7481ZM50.439 16.5316V14.8848H49.3418C49.0275 14.8837 48.7136 14.9042 48.4027 14.9462C48.1089 14.9874 47.854 15.0564 47.6381 15.1534C47.4367 15.2398 47.2602 15.369 47.1228 15.5304C46.9952 15.6838 46.9315 15.8685 46.9319 16.0844C46.9319 16.3924 47.062 16.6438 47.3224 16.8386C47.5827 17.0335 47.918 17.131 48.3281 17.131C48.6864 17.1305 49.0424 17.0786 49.3836 16.9772C49.7526 16.8662 50.1067 16.7165 50.439 16.5309V16.5316Z" fill="white"/>
<path d="M63.9195 14.3145C63.9232 14.9242 63.8079 15.5294 63.5792 16.1011C63.3631 16.6473 63.0381 17.1511 62.6212 17.5863C62.2103 18.012 61.7116 18.3574 61.1546 18.6023C60.5879 18.8535 59.9658 18.9791 59.2886 18.9793C58.8875 18.9825 58.4884 18.9281 58.1053 18.8182C57.7297 18.7063 57.3795 18.5315 57.072 18.3026L57.0887 22.6122H54.6775V9.83806H57.0887L57.1056 10.2998C57.3823 10.0946 57.712 9.93043 58.0947 9.80722C58.4822 9.68353 58.8896 9.62128 59.2995 9.62309C59.8922 9.62434 60.4771 9.74786 61.0117 9.98467C61.5676 10.2271 62.0694 10.5639 62.4912 10.9776C62.9232 11.3983 63.2696 11.8934 63.5302 12.4629C63.7909 13.0323 63.9207 13.6495 63.9195 14.3145ZM61.4758 14.33C61.4758 13.9092 61.4091 13.5295 61.2757 13.1906C61.1533 12.8695 60.9633 12.574 60.7166 12.3213C60.4796 12.0817 60.1892 11.8926 59.8655 11.7671C59.5374 11.6389 59.1732 11.5748 58.773 11.5747C58.5167 11.5747 58.2246 11.6234 57.8968 11.721C57.569 11.8186 57.2937 11.9494 57.0708 12.1135V16.3773C57.5936 16.8187 58.1777 17.0394 58.823 17.0392C59.1874 17.0418 59.5484 16.9737 59.8827 16.8392C60.2039 16.7104 60.4913 16.5187 60.7251 16.2774C60.966 16.025 61.1528 15.7325 61.2757 15.4154C61.4118 15.0676 61.4796 14.6999 61.4758 14.33Z" fill="white"/>
<path d="M74.6576 14.3147C74.6607 14.924 74.545 15.5289 74.316 16.1001C74.0999 16.6463 73.7749 17.1502 73.358 17.5854C72.9471 18.011 72.4485 18.3564 71.8914 18.6013C71.3247 18.8525 70.7027 18.9782 70.0254 18.9783C69.6244 18.9815 69.2252 18.9272 68.8422 18.8172C68.4666 18.7053 68.1163 18.5306 67.8088 18.3016L67.8255 22.6113H65.4143V9.83708H67.8255L67.8424 10.2988C68.119 10.0936 68.4487 9.92946 68.8315 9.80624C69.219 9.68255 69.6264 9.6203 70.0363 9.62211C70.629 9.62336 71.2139 9.74688 71.7485 9.9837C72.3044 10.2261 72.8062 10.5629 73.228 10.9766C73.66 11.3974 74.0064 11.8925 74.2671 12.4619C74.5277 13.0313 74.6579 13.6489 74.6576 14.3147ZM72.2138 14.3301C72.2138 13.9094 72.1475 13.5296 72.015 13.1908C71.8926 12.8696 71.7026 12.5741 71.4559 12.3215C71.2189 12.0819 70.9285 11.8928 70.6048 11.7672C70.2767 11.6391 69.9121 11.575 69.5111 11.5748C69.2549 11.5748 68.9628 11.6236 68.6348 11.7212C68.3069 11.8188 68.0316 11.9496 67.8088 12.1136V16.3775C68.3317 16.8189 68.9157 17.0396 69.561 17.0394C69.9255 17.042 70.2864 16.9738 70.6207 16.8394C70.942 16.7105 71.2293 16.5189 71.4631 16.2776C71.704 16.0252 71.8909 15.7327 72.0137 15.4156C72.1499 15.0677 72.2177 14.7001 72.2138 14.3301Z" fill="white"/>
<path d="M84.8475 18.7479H82.454V13.4216C82.454 13.1037 82.401 12.8241 82.2951 12.5827C82.2011 12.3587 82.0592 12.1546 81.8778 11.9826C81.7079 11.8251 81.5027 11.7042 81.2767 11.6284C81.0494 11.5517 80.8092 11.5128 80.5673 11.5133C80.2101 11.512 79.8551 11.564 79.5158 11.6671C79.1746 11.773 78.8489 11.9178 78.5464 12.0982V18.7479H76.1528V5.9873H78.5464L78.563 10.3586C78.9294 10.0968 79.3472 9.90337 79.7932 9.78917C80.2305 9.67004 80.6837 9.60806 81.1395 9.60504C81.621 9.60241 82.0993 9.6779 82.5526 9.82807C82.9926 9.97525 83.3945 10.2059 83.7326 10.5052C84.0762 10.8084 84.3478 11.1882 84.5475 11.6445C84.7472 12.1009 84.8466 12.6421 84.8458 13.2681L84.8475 18.7479Z" fill="white"/>
<path d="M89.1363 9.83545H86.7095V18.747H89.1363V9.83545Z" fill="white"/>
<path d="M98.2285 10.7743L96.9489 12.6522C96.7178 12.4176 96.4583 12.2084 96.1756 12.0287C95.8938 11.8495 95.6086 11.7597 95.3197 11.7594C95.1454 11.7631 94.9734 11.797 94.8126 11.8593C94.6172 11.9341 94.4414 12.047 94.2973 12.1903C94.1364 12.3437 94.0006 12.5464 93.8899 12.7984C93.7792 13.0503 93.7239 13.3607 93.7239 13.7294V18.747H91.3303V9.85088H93.7239V10.8051C94.0117 10.4257 94.3303 10.1332 94.6796 9.92776C95.0299 9.72223 95.437 9.61532 95.8517 9.62002C96.2724 9.62002 96.6852 9.72514 97.0901 9.93535C97.4949 10.1456 97.8744 10.4252 98.2285 10.7743Z" fill="white"/>
<path d="M109 14.2829C109 14.4268 108.992 14.5756 108.975 14.7292C108.959 14.8827 108.939 15.0418 108.917 15.2063H101.239C101.328 15.4641 101.453 15.71 101.612 15.9373C101.771 16.1666 101.97 16.3695 102.202 16.5378C102.44 16.7098 102.707 16.8449 102.991 16.9378C103.304 17.0384 103.633 17.0878 103.964 17.084C104.405 17.0827 104.844 17.0127 105.26 16.8768C105.692 16.7387 106.053 16.5514 106.341 16.315L107.853 17.7155C107.189 18.1776 106.538 18.5034 105.9 18.6931C105.247 18.885 104.566 18.9811 103.881 18.9778C103.16 18.9778 102.487 18.8546 101.861 18.6084C101.254 18.374 100.701 18.0344 100.232 17.6078C99.7686 17.1826 99.3988 16.6782 99.1431 16.1226C98.88 15.5454 98.7444 14.9252 98.7444 14.2986C98.7444 13.6721 98.88 13.0519 99.1431 12.4747C99.4 11.9177 99.7729 11.413 100.24 10.9894C100.712 10.5652 101.264 10.2259 101.869 9.9889C102.49 9.74339 103.155 9.62063 103.864 9.62063C104.53 9.61852 105.191 9.73575 105.809 9.96588C106.417 10.1895 106.975 10.5157 107.455 10.9277C107.934 11.3424 108.319 11.8423 108.585 12.3976C108.862 12.9675 109 13.5959 109 14.2829ZM106.489 13.4209C106.301 12.8567 105.966 12.4026 105.484 12.0588C105.017 11.72 104.44 11.5382 103.847 11.5432C103.261 11.539 102.692 11.721 102.234 12.0588C101.757 12.4026 101.425 12.8567 101.237 13.4209H106.489Z" fill="white"/>
<path d="M47.2183 29.1348L47.4315 28.7458C47.6625 28.9269 47.8992 29.0565 48.1415 29.1348C48.3837 29.213 48.6649 29.2521 48.9849 29.2519C49.3626 29.2519 49.6536 29.184 49.8581 29.0482C50.0626 28.9124 50.1649 28.721 50.1649 28.474C50.1649 28.3302 50.116 28.213 50.0182 28.1223C49.908 28.0248 49.7759 27.951 49.6314 27.9062C49.4196 27.8392 49.2038 27.7836 48.9851 27.7395C48.6206 27.6614 48.3217 27.5792 48.0885 27.4928C47.8689 27.4154 47.674 27.2879 47.5218 27.1222C47.3774 26.9617 47.3052 26.7519 47.305 26.4927C47.3008 26.2589 47.3741 26.0295 47.5151 25.8354C47.6549 25.6439 47.8549 25.4957 48.1151 25.3909C48.3753 25.2861 48.6764 25.2336 49.0184 25.2335C49.3284 25.2311 49.6364 25.2792 49.9285 25.3755C50.1963 25.4619 50.4407 25.6009 50.6451 25.7829L50.4383 26.1716C50.2161 25.9949 49.9905 25.8663 49.7617 25.7859C49.5239 25.7042 49.272 25.6634 49.0184 25.6655C48.6539 25.6655 48.3683 25.7365 48.1619 25.8784C47.9554 26.0203 47.852 26.219 47.8516 26.4743C47.8516 26.6922 47.9428 26.8568 48.1251 26.968C48.3074 27.0792 48.5829 27.1738 48.9516 27.2518C49.3559 27.3425 49.6738 27.4258 49.9051 27.5018C50.1244 27.5712 50.3223 27.6888 50.4818 27.8445C50.6349 27.9968 50.7116 28.2005 50.7117 28.4556C50.7117 28.7025 50.6417 28.9185 50.5017 29.1037C50.3617 29.2889 50.1606 29.4319 49.8984 29.5327C49.6362 29.6336 49.3297 29.684 48.9787 29.684C48.245 29.684 47.6582 29.5009 47.2183 29.1348Z" fill="#1DB3E8"/>
<path d="M51.9309 29.6347V25.2827H54.9044V25.7025H52.4708V27.215H54.7706V27.6345H52.4708V29.2149H54.9044V29.6347H51.9309Z" fill="#1DB3E8"/>
<path d="M59.3972 25.2827H59.9105V29.6347H59.4904L56.6566 26.1348V29.6347H56.1433V25.2827H56.5632L59.3969 28.7828L59.3972 25.2827Z" fill="#1DB3E8"/>
<path d="M61.4043 29.6347V25.2827H61.9512V29.6347H61.4043Z" fill="#1DB3E8"/>
<path d="M64.2733 29.4123C63.9511 29.2314 63.7034 28.9742 63.53 28.6408C63.3567 28.3073 63.27 27.9144 63.27 27.4619C63.27 27.0049 63.3556 26.6088 63.5268 26.2735C63.698 25.9382 63.9447 25.6811 64.2668 25.502C64.589 25.3229 64.9701 25.2334 65.4102 25.2334C65.8504 25.2334 66.2315 25.3229 66.5537 25.502C66.8758 25.6808 67.1225 25.9379 67.2937 26.2735C67.4649 26.6091 67.5504 27.0031 67.5502 27.4554C67.5502 27.9084 67.4636 28.3025 67.2902 28.6378C67.1169 28.973 66.8691 29.2312 66.547 29.4123C66.2245 29.5933 65.8456 29.6839 65.4102 29.6839C64.9749 29.6839 64.5959 29.5933 64.2733 29.4123ZM66.5733 28.7858C66.8511 28.4754 66.9899 28.0319 66.9899 27.4554C66.9899 26.8789 66.8522 26.4365 66.5768 26.1283C66.3011 25.8199 65.9121 25.6656 65.41 25.6654C64.9128 25.6654 64.5251 25.8208 64.2467 26.1315C63.9683 26.4422 63.8294 26.8835 63.8301 27.4554C63.8301 28.0276 63.9689 28.4701 64.2467 28.7828C64.5244 29.0955 64.9122 29.2519 65.41 29.2519C65.9076 29.2519 66.2954 29.0965 66.5733 28.7858Z" fill="#1DB3E8"/>
<path d="M72.5702 29.6347H71.9701L71.1702 28.2396C71.0722 28.0709 70.9578 27.9546 70.8269 27.8907C70.696 27.8269 70.5171 27.795 70.2902 27.795H69.4103V29.6347H68.8701V25.2827H70.8035C71.3146 25.2827 71.7045 25.3877 71.9733 25.5976C72.2421 25.8075 72.3766 26.1161 72.3768 26.5235C72.3768 26.8611 72.2734 27.1337 72.0668 27.3413C71.8601 27.5489 71.5657 27.6794 71.1834 27.7326C71.3015 27.7645 71.41 27.8215 71.5 27.8992C71.6017 27.9906 71.6862 28.097 71.7501 28.2141L72.5702 29.6347ZM70.7556 27.3754C71.1201 27.3754 71.3923 27.3054 71.5721 27.1655C71.7519 27.0255 71.8419 26.8136 71.8421 26.5298C71.8421 26.2499 71.7533 26.042 71.5756 25.9062C71.398 25.7704 71.1245 25.7025 70.7553 25.7025H69.4088V27.3754H70.7556Z" fill="#1DB3E8"/>
<path d="M76.6766 29.4157C76.3475 29.2366 76.0953 28.9794 75.92 28.6439C75.7447 28.3085 75.6568 27.9124 75.6565 27.4556C75.6565 26.9989 75.7443 26.604 75.92 26.2707C76.0956 25.9374 76.3479 25.6812 76.6766 25.5022C77.0054 25.3231 77.392 25.2336 77.8365 25.2336C78.1408 25.2302 78.4433 25.2769 78.7299 25.3717C78.9943 25.4604 79.2353 25.6004 79.4366 25.7823L79.23 26.171C79.0033 25.9943 78.7811 25.8667 78.5633 25.7883C78.333 25.7081 78.0885 25.6684 77.8425 25.6711C77.3269 25.6711 76.928 25.8265 76.6458 26.1372C76.3636 26.4479 76.2227 26.8872 76.2232 27.4549C76.2232 28.0271 76.3641 28.4685 76.6458 28.779C76.9275 29.0896 77.3264 29.245 77.8425 29.2451C78.0886 29.2479 78.333 29.2081 78.5633 29.1277C78.7811 29.0496 79.0033 28.9221 79.23 28.7452L79.4366 29.1342C79.2352 29.316 78.9943 29.4559 78.7299 29.5446C78.4433 29.6393 78.1408 29.6861 77.8365 29.6827C77.392 29.6836 77.0054 29.5946 76.6766 29.4157Z" fill="#1DB3E8"/>
<path d="M84.1565 29.6347L83.6365 28.5172H81.1831L80.6631 29.6347H80.103L82.1699 25.2827H82.6422L84.7096 29.6347H84.1565ZM81.3775 28.0976H83.4441L82.4108 25.8692L81.3775 28.0976Z" fill="#1DB3E8"/>
<path d="M89.4437 29.6347H88.8436L88.0437 28.2396C87.9458 28.0709 87.8314 27.9546 87.7004 27.8907C87.5695 27.8269 87.3906 27.795 87.1638 27.795H86.2838V29.6347H85.7437V25.2827H87.6771C88.1881 25.2827 88.5782 25.3877 88.8471 25.5976C89.1161 25.8075 89.2505 26.1161 89.2503 26.5235C89.2503 26.8611 89.147 27.1337 88.9403 27.3413C88.7337 27.5489 88.4392 27.6794 88.0569 27.7326C88.1751 27.7645 88.2835 27.8215 88.3736 27.8992C88.4753 27.9906 88.5598 28.097 88.6236 28.2141L89.4437 29.6347ZM87.6303 27.3754C87.9949 27.3754 88.2671 27.3054 88.4469 27.1655C88.6267 27.0255 88.7167 26.8136 88.7169 26.5298C88.7169 26.2499 88.628 26.042 88.4504 25.9062C88.2727 25.7704 87.9993 25.7025 87.6301 25.7025H86.2836V27.3754H87.6303Z" fill="#1DB3E8"/>
<path d="M90.6501 29.6347V25.2827H93.6234V25.7025H91.1901V27.215H93.4901V27.6345H91.1901V29.2149H93.6234V29.6347H90.6501Z" fill="#1DB3E8"/>
<defs>
<clipPath id="clip0_2023_1989">
<rect width="29" height="35" fill="white"/>
</clipPath>
</defs>
</svg>
